# xmcd
#
# Track frame offsets:
# 150
# 18881
# 32341
# 44969
# 63200
# 90532
# 103510
# 118668
# 145374
# 161580
# 173774
# 191598
# 206622
# 233163
# 249848
#
# Disc length: 3509 seconds
#
#
# Revision: 0
# Processed by: cddbd v1.5.2PL0 Copyright (c) Steve Scherf et al.
# Submitted via: FreeRIP 2.945 
#
DISCID=c20db30f
DTITLE=Gentleman Tim and the Contenders - Left Hook On The Blues
DYEAR=2006
DGENRE=Blues
TTITLE0=Let Me Love You Baby (Willie Dixon)
TTITLE1=Fun To Visit (Freddie Brooks)
TTITLE2=Warm Hearted Woman (Sugar Ray Norcia)
TTITLE3=Up The Line (Walter Jacobs)
TTITLE4=California Blues (George Smith)
TTITLE5=Don't Start Me Talkin' (Sonny Boy Williamson)
TTITLE6=Born In Chicago (Nick Gravenites)
TTITLE7=In The Dark (Junior Parker)
TTITLE8=Ringside Boogie (Nash, Peel, Corbett)
TTITLE9=My Babe (Willie Dixon)
TTITLE10=Ain't That Fine (James Harman)
TTITLE11=Bring It On Home (Sonny Boy Williamson)
TTITLE12=Fallin' Rain (Luther Tucker)
TTITLE13=Tried To Call You (Lynwood Slim)
TTITLE14=Mellow Down Easy (Willie Dixon)
EXTD=www.gentlemantim.com
EXTT0=
EXTT1=
EXTT2=
EXTT3=
EXTT4=
EXTT5=
EXTT6=
EXTT7=
EXTT8=
EXTT9=
EXTT10=
EXTT11=
EXTT12=
EXTT13=
EXTT14=
PLAYORDER=
